<?xml version="1.0" encoding="UTF-8"?><svg xmlns="http://www.w3.org/2000/svg" xmlns:xlink="http://www.w3.org/1999/xlink" fill-opacity="1" color-rendering="auto" color-interpolation="auto" text-rendering="auto" stroke="black" stroke-linecap="square" width="1030" stroke-miterlimit="10" shape-rendering="auto" stroke-opacity="1" fill="black" stroke-dasharray="none" font-weight="normal" stroke-width="1" height="558" font-family="'Dialog'" font-style="normal" stroke-linejoin="miter" font-size="12px" stroke-dashoffset="0" image-rendering="auto">
  <!--Generated by ySVG 2.5-->
  <defs id="genericDefs"/>
  <g>
    <defs id="defs1">
      <linearGradient x1="-206.3389" gradientUnits="userSpaceOnUse" x2="-148.7811" y1="-243.016" y2="-243.016" id="linearGradient1" spreadMethod="reflect">
        <stop stop-opacity="1" stop-color="white" offset="0%"/>
        <stop stop-opacity="1" stop-color="white" offset="100%"/>
      </linearGradient>
      <linearGradient x1="-283.6566" gradientUnits="userSpaceOnUse" x2="-226.0988" y1="-179.112" y2="-179.112" id="linearGradient2" spreadMethod="reflect">
        <stop stop-opacity="1" stop-color="white" offset="0%"/>
        <stop stop-opacity="1" stop-color="white" offset="100%"/>
      </linearGradient>
      <linearGradient x1="-133.3788" gradientUnits="userSpaceOnUse" x2="-75.821" y1="-179.112" y2="-179.112" id="linearGradient3" spreadMethod="reflect">
        <stop stop-opacity="1" stop-color="white" offset="0%"/>
        <stop stop-opacity="1" stop-color="white" offset="100%"/>
      </linearGradient>
      <linearGradient x1="5.7834" gradientUnits="userSpaceOnUse" x2="63.3412" y1="-225.456" y2="-225.456" id="linearGradient4" spreadMethod="reflect">
        <stop stop-opacity="1" stop-color="white" offset="0%"/>
        <stop stop-opacity="1" stop-color="white" offset="100%"/>
      </linearGradient>
      <linearGradient x1="5.7834" gradientUnits="userSpaceOnUse" x2="63.3412" y1="-179.112" y2="-179.112" id="linearGradient5" spreadMethod="reflect">
        <stop stop-opacity="1" stop-color="white" offset="0%"/>
        <stop stop-opacity="1" stop-color="white" offset="100%"/>
      </linearGradient>
      <linearGradient x1="-283.6566" gradientUnits="userSpaceOnUse" x2="-226.0988" y1="-115.208" y2="-115.208" id="linearGradient6" spreadMethod="reflect">
        <stop stop-opacity="1" stop-color="white" offset="0%"/>
        <stop stop-opacity="1" stop-color="white" offset="100%"/>
      </linearGradient>
      <linearGradient x1="-133.3788" gradientUnits="userSpaceOnUse" x2="-75.821" y1="-115.208" y2="-115.208" id="linearGradient7" spreadMethod="reflect">
        <stop stop-opacity="1" stop-color="white" offset="0%"/>
        <stop stop-opacity="1" stop-color="white" offset="100%"/>
      </linearGradient>
      <linearGradient x1="-415.2921" gradientUnits="userSpaceOnUse" x2="-357.7343" y1="-146.792" y2="-146.792" id="linearGradient8" spreadMethod="reflect">
        <stop stop-opacity="1" stop-color="white" offset="0%"/>
        <stop stop-opacity="1" stop-color="white" offset="100%"/>
      </linearGradient>
      <linearGradient x1="-415.2921" gradientUnits="userSpaceOnUse" x2="-357.7343" y1="-100.448" y2="-100.448" id="linearGradient9" spreadMethod="reflect">
        <stop stop-opacity="1" stop-color="white" offset="0%"/>
        <stop stop-opacity="1" stop-color="white" offset="100%"/>
      </linearGradient>
      <linearGradient x1="-133.3788" gradientUnits="userSpaceOnUse" x2="-75.821" y1="-47.816" y2="-47.816" id="linearGradient10" spreadMethod="reflect">
        <stop stop-opacity="1" stop-color="white" offset="0%"/>
        <stop stop-opacity="1" stop-color="white" offset="100%"/>
      </linearGradient>
      <linearGradient x1="-4.4966" gradientUnits="userSpaceOnUse" x2="53.0612" y1="-47.816" y2="-47.816" id="linearGradient11" spreadMethod="reflect">
        <stop stop-opacity="1" stop-color="white" offset="0%"/>
        <stop stop-opacity="1" stop-color="white" offset="100%"/>
      </linearGradient>
      <linearGradient x1="-4.4966" gradientUnits="userSpaceOnUse" x2="53.0612" y1="-94.312" y2="-94.312" id="linearGradient12" spreadMethod="reflect">
        <stop stop-opacity="1" stop-color="white" offset="0%"/>
        <stop stop-opacity="1" stop-color="white" offset="100%"/>
      </linearGradient>
      <linearGradient x1="-4.4966" gradientUnits="userSpaceOnUse" x2="53.0612" y1="-1.32" y2="-1.32" id="linearGradient13" spreadMethod="reflect">
        <stop stop-opacity="1" stop-color="white" offset="0%"/>
        <stop stop-opacity="1" stop-color="white" offset="100%"/>
      </linearGradient>
      <clipPath clipPathUnits="userSpaceOnUse" id="clipPath1">
        <path d="M0 0 L1030 0 L1030 558 L0 558 L0 0 Z"/>
      </clipPath>
      <clipPath clipPathUnits="userSpaceOnUse" id="clipPath2">
        <path d="M-448 -247 L67 -247 L67 32 L-448 32 L-448 -247 Z"/>
      </clipPath>
    </defs>
    <g fill="white" text-rendering="geometricPrecision" shape-rendering="geometricPrecision" transform="scale(2,2) translate(448,247)" stroke="white">
      <rect x="-448" width="515" height="279" y="-247" clip-path="url(#clipPath2)" stroke="none"/>
    </g>
    <g fill="url(#linearGradient1)" text-rendering="geometricPrecision" shape-rendering="geometricPrecision" transform="matrix(2,0,0,2,896,494)" stroke="url(#linearGradient1)">
      <rect x="-235.1178" width="86.3367" height="30" y="-243.016" clip-path="url(#clipPath2)" stroke="none"/>
    </g>
    <g text-rendering="geometricPrecision" stroke-miterlimit="1.45" shape-rendering="geometricPrecision" transform="matrix(2,0,0,2,896,494)" stroke-linecap="butt">
      <rect fill="none" x="-235.1178" width="86.3367" height="30" y="-243.016" clip-path="url(#clipPath2)"/>
      <text x="-226.5153" font-size="14px" y="-223.48" clip-path="url(#clipPath2)" font-family="'Libertinus Serif'" stroke="none" xml:space="preserve">applications</text>
    </g>
    <g fill="url(#linearGradient2)" text-rendering="geometricPrecision" shape-rendering="geometricPrecision" transform="matrix(2,0,0,2,896,494)" stroke="url(#linearGradient2)">
      <rect x="-312.4355" width="86.3367" height="30" y="-179.112" clip-path="url(#clipPath2)" stroke="none"/>
    </g>
    <g text-rendering="geometricPrecision" stroke-miterlimit="1.45" shape-rendering="geometricPrecision" transform="matrix(2,0,0,2,896,494)" stroke-linecap="butt">
      <rect fill="none" x="-312.4355" width="86.3367" height="30" y="-179.112" clip-path="url(#clipPath2)"/>
      <text x="-301.901" font-size="14px" y="-159.576" clip-path="url(#clipPath2)" font-family="'Libertinus Serif'" stroke="none" xml:space="preserve">widespread</text>
    </g>
    <g fill="url(#linearGradient3)" text-rendering="geometricPrecision" shape-rendering="geometricPrecision" transform="matrix(2,0,0,2,896,494)" stroke="url(#linearGradient3)">
      <rect x="-162.1578" width="86.3367" height="30" y="-179.112" clip-path="url(#clipPath2)" stroke="none"/>
    </g>
    <g text-rendering="geometricPrecision" stroke-miterlimit="1.45" shape-rendering="geometricPrecision" transform="matrix(2,0,0,2,896,494)" stroke-linecap="butt">
      <rect fill="none" x="-162.1578" width="86.3367" height="30" y="-179.112" clip-path="url(#clipPath2)"/>
      <text x="-148.9283" font-size="14px" y="-159.576" clip-path="url(#clipPath2)" font-family="'Libertinus Serif'" stroke="none" xml:space="preserve">challenges</text>
    </g>
    <g fill="url(#linearGradient4)" text-rendering="geometricPrecision" shape-rendering="geometricPrecision" transform="matrix(2,0,0,2,896,494)" stroke="url(#linearGradient4)">
      <rect x="-22.9955" width="86.3367" height="30" y="-225.456" clip-path="url(#clipPath2)" stroke="none"/>
    </g>
    <g text-rendering="geometricPrecision" stroke-miterlimit="1.45" shape-rendering="geometricPrecision" transform="matrix(2,0,0,2,896,494)" stroke-linecap="butt">
      <rect fill="none" x="-22.9955" width="86.3367" height="30" y="-225.456" clip-path="url(#clipPath2)"/>
      <text x="-2.4721" font-size="14px" y="-205.92" clip-path="url(#clipPath2)" font-family="'Libertinus Serif'" stroke="none" xml:space="preserve">reactive</text>
    </g>
    <g fill="url(#linearGradient5)" text-rendering="geometricPrecision" shape-rendering="geometricPrecision" transform="matrix(2,0,0,2,896,494)" stroke="url(#linearGradient5)">
      <rect x="-22.9955" width="86.3367" height="30" y="-179.112" clip-path="url(#clipPath2)" stroke="none"/>
    </g>
    <g text-rendering="geometricPrecision" stroke-miterlimit="1.45" shape-rendering="geometricPrecision" transform="matrix(2,0,0,2,896,494)" stroke-linecap="butt">
      <rect fill="none" x="-22.9955" width="86.3367" height="30" y="-179.112" clip-path="url(#clipPath2)"/>
      <text x="-13.308" font-size="14px" y="-159.576" clip-path="url(#clipPath2)" font-family="'Libertinus Serif'" stroke="none" xml:space="preserve">distribution</text>
    </g>
    <g fill="url(#linearGradient6)" text-rendering="geometricPrecision" shape-rendering="geometricPrecision" transform="matrix(2,0,0,2,896,494)" stroke="url(#linearGradient6)">
      <rect x="-312.4355" width="86.3367" height="30" y="-115.208" clip-path="url(#clipPath2)" stroke="none"/>
    </g>
    <g text-rendering="geometricPrecision" stroke-miterlimit="1.45" shape-rendering="geometricPrecision" transform="matrix(2,0,0,2,896,494)" stroke-linecap="butt">
      <rect fill="none" x="-312.4355" width="86.3367" height="30" y="-115.208" clip-path="url(#clipPath2)"/>
      <text x="-297.0431" font-size="14px" y="-95.672" clip-path="url(#clipPath2)" font-family="'Libertinus Serif'" stroke="none" xml:space="preserve">centralize</text>
    </g>
    <g fill="url(#linearGradient7)" text-rendering="geometricPrecision" shape-rendering="geometricPrecision" transform="matrix(2,0,0,2,896,494)" stroke="url(#linearGradient7)">
      <rect x="-162.1578" width="86.3367" height="30" y="-115.208" clip-path="url(#clipPath2)" stroke="none"/>
    </g>
    <g text-rendering="geometricPrecision" stroke-miterlimit="1.45" shape-rendering="geometricPrecision" transform="matrix(2,0,0,2,896,494)" stroke-linecap="butt">
      <rect fill="none" x="-162.1578" width="86.3367" height="30" y="-115.208" clip-path="url(#clipPath2)"/>
      <text x="-142.2993" font-size="14px" y="-95.672" clip-path="url(#clipPath2)" font-family="'Libertinus Serif'" stroke="none" xml:space="preserve">simplify</text>
    </g>
    <g fill="url(#linearGradient8)" text-rendering="geometricPrecision" shape-rendering="geometricPrecision" transform="matrix(2,0,0,2,896,494)" stroke="url(#linearGradient8)">
      <rect x="-444.071" width="86.3367" height="30" y="-146.792" clip-path="url(#clipPath2)" stroke="none"/>
    </g>
    <g text-rendering="geometricPrecision" stroke-miterlimit="1.45" shape-rendering="geometricPrecision" transform="matrix(2,0,0,2,896,494)" stroke-linecap="butt">
      <rect fill="none" x="-444.071" width="86.3367" height="30" y="-146.792" clip-path="url(#clipPath2)"/>
      <text x="-441.9365" font-size="14px" y="-127.256" clip-path="url(#clipPath2)" font-family="'Libertinus Serif'" stroke="none" xml:space="preserve">big companies</text>
    </g>
    <g fill="url(#linearGradient9)" text-rendering="geometricPrecision" shape-rendering="geometricPrecision" transform="matrix(2,0,0,2,896,494)" stroke="url(#linearGradient9)">
      <rect x="-444.071" width="86.3367" height="30" y="-100.448" clip-path="url(#clipPath2)" stroke="none"/>
    </g>
    <g text-rendering="geometricPrecision" stroke-miterlimit="1.45" shape-rendering="geometricPrecision" transform="matrix(2,0,0,2,896,494)" stroke-linecap="butt">
      <rect fill="none" x="-444.071" width="86.3367" height="30" y="-100.448" clip-path="url(#clipPath2)"/>
      <text x="-433.6905" font-size="14px" y="-80.912" clip-path="url(#clipPath2)" font-family="'Libertinus Serif'" stroke="none" xml:space="preserve">many users</text>
    </g>
    <g fill="url(#linearGradient10)" text-rendering="geometricPrecision" shape-rendering="geometricPrecision" transform="matrix(2,0,0,2,896,494)" stroke="url(#linearGradient10)">
      <rect x="-162.1578" width="86.3367" height="30" y="-47.816" clip-path="url(#clipPath2)" stroke="none"/>
    </g>
    <g text-rendering="geometricPrecision" stroke-miterlimit="1.45" shape-rendering="geometricPrecision" transform="matrix(2,0,0,2,896,494)" stroke-linecap="butt">
      <rect fill="none" x="-162.1578" width="86.3367" height="30" y="-47.816" clip-path="url(#clipPath2)"/>
      <text x="-146.0933" font-size="14px" y="-28.28" clip-path="url(#clipPath2)" font-family="'Libertinus Serif'" stroke="none" xml:space="preserve">paradigm</text>
    </g>
    <g fill="url(#linearGradient11)" text-rendering="geometricPrecision" shape-rendering="geometricPrecision" transform="matrix(2,0,0,2,896,494)" stroke="url(#linearGradient11)">
      <rect x="-33.2755" width="86.3367" height="30" y="-47.816" clip-path="url(#clipPath2)" stroke="none"/>
    </g>
    <g text-rendering="geometricPrecision" stroke-miterlimit="1.45" shape-rendering="geometricPrecision" transform="matrix(2,0,0,2,896,494)" stroke-linecap="butt">
      <rect fill="none" x="-33.2755" width="86.3367" height="30" y="-47.816" clip-path="url(#clipPath2)"/>
      <text x="-22.923" font-size="14px" y="-28.28" clip-path="url(#clipPath2)" font-family="'Libertinus Serif'" stroke="none" xml:space="preserve">automation</text>
    </g>
    <g fill="url(#linearGradient12)" text-rendering="geometricPrecision" shape-rendering="geometricPrecision" transform="matrix(2,0,0,2,896,494)" stroke="url(#linearGradient12)">
      <rect x="-33.2755" width="86.3367" height="30" y="-94.312" clip-path="url(#clipPath2)" stroke="none"/>
    </g>
    <g text-rendering="geometricPrecision" stroke-miterlimit="1.45" shape-rendering="geometricPrecision" transform="matrix(2,0,0,2,896,494)" stroke-linecap="butt">
      <rect fill="none" x="-33.2755" width="86.3367" height="30" y="-94.312" clip-path="url(#clipPath2)"/>
      <text x="-19.997" font-size="14px" y="-74.776" clip-path="url(#clipPath2)" font-family="'Libertinus Serif'" stroke="none" xml:space="preserve">expressive</text>
    </g>
    <g fill="url(#linearGradient13)" text-rendering="geometricPrecision" shape-rendering="geometricPrecision" transform="matrix(2,0,0,2,896,494)" stroke="url(#linearGradient13)">
      <rect x="-33.2755" width="86.3367" height="30" y="-1.32" clip-path="url(#clipPath2)" stroke="none"/>
    </g>
    <g text-rendering="geometricPrecision" stroke-miterlimit="1.45" shape-rendering="geometricPrecision" transform="matrix(2,0,0,2,896,494)" stroke-linecap="butt">
      <rect fill="none" x="-33.2755" width="86.3367" height="30" y="-1.32" clip-path="url(#clipPath2)"/>
      <text x="-14.6911" font-size="14px" y="18.216" clip-path="url(#clipPath2)" font-family="'Libertinus Serif'" stroke="none" xml:space="preserve">practical</text>
      <path fill="none" d="M-210.098 -213.016 L-244.9522 -184.2086" clip-path="url(#clipPath2)"/>
      <path d="M-251.1186 -179.112 L-238.6836 -182.9029 L-244.1814 -184.8457 L-245.0544 -190.6109 Z" clip-path="url(#clipPath2)" stroke="none"/>
      <path fill="none" d="M-174.8237 -213.016 L-142.1331 -184.383" clip-path="url(#clipPath2)"/>
      <path d="M-136.1151 -179.112 L-141.8477 -190.7798 L-142.8853 -185.0419 L-148.4365 -183.2573 Z" clip-path="url(#clipPath2)" stroke="none"/>
      <path fill="none" d="M-75.821 -178.488 L-22.9955 -196.08" clip-path="url(#clipPath2)"/>
      <path fill="none" d="M-75.821 -164.112 L-22.9955 -164.112" clip-path="url(#clipPath2)"/>
      <path fill="none" d="M-269.2672 -149.112 L-269.2672 -123.208" clip-path="url(#clipPath2)"/>
      <path d="M-269.2672 -115.208 L-264.2672 -127.208 L-269.2672 -124.208 L-274.2672 -127.208 Z" clip-path="url(#clipPath2)" stroke="none"/>
      <path fill="none" d="M-154.2637 -149.112 L-226.6309 -118.3386" clip-path="url(#clipPath2)"/>
      <path d="M-233.9929 -115.208 L-220.9932 -115.3027 L-225.7106 -118.7299 L-224.9065 -124.5052 Z" clip-path="url(#clipPath2)" stroke="none"/>
      <path fill="none" d="M-118.9894 -149.112 L-118.9894 -123.208" clip-path="url(#clipPath2)"/>
      <path d="M-118.9894 -115.208 L-113.9894 -127.208 L-118.9894 -124.208 L-123.9894 -127.208 Z" clip-path="url(#clipPath2)" stroke="none"/>
      <path fill="none" d="M-233.9929 -149.112 L-161.6257 -118.3386" clip-path="url(#clipPath2)"/>
      <path d="M-154.2637 -115.208 L-163.35 -124.5052 L-162.5459 -118.7299 L-167.2633 -115.3027 Z" clip-path="url(#clipPath2)" stroke="none"/>
      <path fill="none" d="M-312.4355 -110.5656 L-357.7343 -121.4344" clip-path="url(#clipPath2)"/>
      <path fill="none" d="M-312.4355 -95.3676 L-357.7343 -90.2884" clip-path="url(#clipPath2)"/>
      <path fill="none" d="M-118.9894 -85.208 L-118.9894 -55.816" clip-path="url(#clipPath2)"/>
      <path d="M-118.9894 -47.816 L-113.9894 -59.816 L-118.9894 -56.816 L-123.9894 -59.816 Z" clip-path="url(#clipPath2)" stroke="none"/>
      <path fill="none" d="M-75.821 -32.816 L-33.2755 -32.816" clip-path="url(#clipPath2)"/>
      <path fill="none" d="M-77.4109 -47.816 L-31.6856 -64.312" clip-path="url(#clipPath2)"/>
      <path fill="none" d="M-77.4109 -17.816 L-31.6856 -1.32" clip-path="url(#clipPath2)"/>
    </g>
  </g>
</svg>
